<?xml version="1.0" encoding="UTF-8"?>
<svg xmlns="http://www.w3.org/2000/svg" xmlns:xlink="http://www.w3.org/1999/xlink" width="40px" height="40px" viewBox="0 0 594 288" version="1.1">
<g id="surface1">
<path style=" stroke:none;fill-rule:nonzero;fill:rgb(99.215686%,72.156863%,7.45098%);fill-opacity:1;" d="M 383.382812 6.070312 C 386.898438 3.398438 391.285156 1.800781 395.726562 1.9375 C 457.410156 1.945312 519.09375 1.917969 580.773438 1.945312 C 585.207031 1.863281 587.832031 7.832031 585.109375 11.210938 C 578.34375 19.375 571.351562 27.363281 564.667969 35.589844 C 495.679688 35.703125 426.6875 35.589844 357.699219 35.648438 C 364.007812 28.335938 370.152344 20.886719 376.414062 13.53125 C 378.648438 10.972656 380.601562 8.097656 383.382812 6.070312 Z M 383.382812 6.070312 "/>
<path style=" stroke:none;fill-rule:nonzero;fill:rgb(99.215686%,72.156863%,7.45098%);fill-opacity:1;" d="M 319.089844 81.546875 C 327.535156 71.28125 336.292969 61.265625 344.71875 50.980469 C 388.5625 50.800781 432.417969 50.957031 476.261719 50.90625 C 501.414062 50.910156 526.558594 50.890625 551.703125 50.917969 C 543 61.054688 534.457031 71.339844 525.804688 81.523438 C 456.898438 81.535156 387.992188 81.492188 319.089844 81.546875 Z M 319.089844 81.546875 "/>
<path style=" stroke:none;fill-rule:nonzero;fill:rgb(99.215686%,72.156863%,7.45098%);fill-opacity:1;" d="M 113.71875 79.953125 C 117.035156 78.53125 121.046875 78.976562 124.003906 81.042969 C 156.898438 104.347656 189.796875 127.648438 222.703125 150.941406 C 226.042969 153.296875 227.84375 157.382812 227.824219 161.417969 C 227.753906 165.746094 227.894531 170.078125 227.769531 174.40625 C 227.867188 179.023438 227.8125 183.636719 227.796875 188.257812 C 297.152344 188.238281 366.511719 188.242188 435.867188 188.25 C 411.386719 217.195312 386.988281 246.207031 362.523438 275.160156 C 356.644531 281.730469 348.042969 285.816406 339.21875 286.070312 C 286.046875 286.0625 232.878906 286.082031 179.714844 286.0625 C 173.269531 285.777344 167.523438 282.425781 162.539062 278.578125 C 112.707031 242.917969 62.851562 207.28125 13.019531 171.621094 C 7.632812 167.921875 6.1875 159.847656 9.6875 154.390625 C 11.132812 151.855469 13.742188 150.410156 16.035156 148.757812 C 47.351562 126.582031 78.671875 104.410156 110 82.238281 C 111.199219 81.421875 112.347656 80.488281 113.71875 79.953125 Z M 80.949219 158.179688 C 78.171875 159.25 77.609375 163.445312 79.796875 165.363281 C 80.882812 166.273438 82.082031 167.03125 83.238281 167.863281 C 115.457031 190.667969 147.648438 213.527344 179.882812 236.3125 C 182.570312 237.839844 185.902344 235.445312 185.804688 232.488281 C 185.894531 209.296875 185.808594 186.101562 185.847656 162.910156 C 186.039062 160.515625 184.34375 157.871094 181.785156 157.816406 C 148.929688 157.765625 116.074219 157.820312 83.222656 157.785156 C 82.445312 157.761719 81.667969 157.875 80.949219 158.179688 Z M 80.949219 158.179688 "/>
<path style=" stroke:none;fill-rule:nonzero;fill:rgb(99.215686%,72.156863%,7.45098%);fill-opacity:1;" d="M 306.234375 96.679688 C 357.398438 96.589844 408.570312 96.671875 459.734375 96.648438 C 477.523438 96.671875 495.308594 96.585938 513.09375 96.6875 C 504.4375 106.804688 495.902344 117.03125 487.320312 127.210938 C 418.375 127.203125 349.433594 127.230469 280.488281 127.195312 C 289.09375 117.042969 297.671875 106.871094 306.234375 96.679688 Z M 306.234375 96.679688 "/>
<path style=" stroke:none;fill-rule:nonzero;fill:rgb(99.215686%,72.156863%,7.45098%);fill-opacity:1;" d="M 241.757812 173.027344 C 250.46875 162.910156 258.972656 152.617188 267.636719 142.460938 C 335.671875 142.488281 403.714844 142.457031 471.75 142.472656 C 472.617188 142.464844 473.492188 142.410156 474.378906 142.363281 C 466.011719 152.722656 457.214844 162.746094 448.707031 173 C 379.722656 173.027344 310.738281 172.972656 241.757812 173.027344 Z M 241.757812 173.027344 "/>
</g>
</svg>
